<svg width="26" height="28" viewBox="0 0 26 28" fill="none" xmlns="http://www.w3.org/2000/svg">
<g clip-path="url(#clip0_32237_2)">
<path d="M13.0002 16.8L2.79183 26.6C2.40988 26.9666 1.92377 27.15 1.3335 27.15C0.743218 27.15 0.257106 26.9666 -0.124838 26.6C-0.506782 26.2333 -0.697754 25.7666 -0.697754 25.2C-0.697754 24.6333 -0.506782 24.1666 -0.124838 23.8L10.0835 14L-0.124838 4.19998C-0.506782 3.83331 -0.697754 3.36664 -0.697754 2.79998C-0.697754 2.23331 -0.506782 1.76664 -0.124838 1.39997C0.257106 1.03331 0.743218 0.849976 1.3335 0.849976C1.92377 0.849976 2.40988 1.03331 2.79183 1.39997L13.0002 11.2L23.2085 1.39997C23.5904 1.03331 24.0766 0.849976 24.6668 0.849976C25.2571 0.849976 25.7432 1.03331 26.1252 1.39997C26.5071 1.76664 26.6981 2.23331 26.6981 2.79998C26.6981 3.36664 26.5071 3.83331 26.1252 4.19998L15.9168 14L26.1252 23.8C26.5071 24.1666 26.6981 24.6333 26.6981 25.2C26.6981 25.7666 26.5071 26.2333 26.1252 26.6C25.7432 26.9666 25.2571 27.15 24.6668 27.15C24.0766 27.15 23.5904 26.9666 23.2085 26.6L13.0002 16.8Z" fill="#717171"/>
</g>
<defs>
<clipPath id="clip0_32237_2">
<rect width="26" height="28" fill="white"/>
</clipPath>
</defs>
</svg>
