<svg width="19" height="19" viewBox="0 0 19 19" fill="none" xmlns="http://www.w3.org/2000/svg">
<path d="M16.9 0.307044C16.8646 0.216439 16.8028 0.138609 16.7225 0.0837387C16.6422 0.0288679 16.5472 -0.000488281 16.45 -0.000488281C16.3527 -0.000488281 16.2577 0.0288679 16.1775 0.0837387C16.0972 0.138609 16.0353 0.216439 16 0.307044L15.57 1.40204C15.5459 1.46393 15.5093 1.5202 15.4625 1.56734C15.4157 1.61448 15.3597 1.65148 15.298 1.67604L14.207 2.10804C14.1166 2.14403 14.0392 2.2063 13.9846 2.28679C13.93 2.36728 13.9008 2.46229 13.9008 2.55954C13.9008 2.6568 13.93 2.75181 13.9846 2.8323C14.0392 2.91279 14.1166 2.97506 14.207 3.01104L15.298 3.44304C15.3597 3.46729 15.4158 3.50406 15.4626 3.55105C15.5094 3.59804 15.546 3.65422 15.57 3.71604L16 4.81004C16.162 5.22004 16.74 5.22004 16.9 4.81004L17.33 3.71504C17.3543 3.65324 17.3911 3.59711 17.4381 3.55014C17.485 3.50318 17.5412 3.46638 17.603 3.44204L18.694 3.01004C18.7843 2.97406 18.8618 2.91179 18.9164 2.8313C18.971 2.75081 19.0001 2.65579 19.0001 2.55854C19.0001 2.46129 18.971 2.36628 18.9164 2.28579C18.8618 2.2053 18.7843 2.14303 18.694 2.10704L17.603 1.67504C17.5411 1.6506 17.4849 1.61364 17.4379 1.5665C17.3909 1.51936 17.3542 1.46303 17.33 1.40104L16.9 0.307044ZM13.033 6.13004C12.9976 6.03944 12.9358 5.96161 12.8555 5.90674C12.7752 5.85187 12.6802 5.82251 12.583 5.82251C12.4857 5.82251 12.3907 5.85187 12.3104 5.90674C12.2302 5.96161 12.1683 6.03944 12.133 6.13004L11.976 6.52904C11.9517 6.59075 11.9151 6.64682 11.8683 6.69378C11.8215 6.74074 11.7656 6.77759 11.704 6.80204L11.306 6.96004C11.2156 6.99603 11.1382 7.0583 11.0836 7.13879C11.029 7.21928 10.9998 7.31429 10.9998 7.41154C10.9998 7.50879 11.029 7.60381 11.0836 7.6843C11.1382 7.76479 11.2156 7.82706 11.306 7.86304L11.704 8.02004C11.829 8.07004 11.927 8.16804 11.976 8.29404L12.133 8.69304C12.294 9.10304 12.872 9.10304 13.033 8.69304L13.19 8.29304C13.2142 8.23134 13.2508 8.17527 13.2976 8.12831C13.3444 8.08134 13.4004 8.0445 13.462 8.02004L13.86 7.86304C13.9503 7.82706 14.0278 7.76479 14.0824 7.6843C14.137 7.60381 14.1661 7.50879 14.1661 7.41154C14.1661 7.31429 14.137 7.21928 14.0824 7.13879C14.0278 7.0583 13.9503 6.99603 13.86 6.96004L13.462 6.80204C13.4004 6.77759 13.3444 6.74074 13.2976 6.69378C13.2508 6.64682 13.2142 6.59075 13.19 6.52904L13.033 6.12904V6.13004Z" fill="black"/>
<path d="M9 19C14.523 19 19 15.523 19 10C19 9.537 18.306 9.46 18.067 9.857C17.5572 10.7013 16.862 11.4186 16.034 11.9545C15.206 12.4903 14.2669 12.8307 13.2878 12.9499C12.3088 13.0691 11.3154 12.9639 10.383 12.6423C9.45067 12.3207 8.60369 11.7911 7.90628 11.0937C7.20887 10.3963 6.67932 9.54933 6.35772 8.61695C6.03613 7.68457 5.93093 6.69123 6.0501 5.71217C6.16926 4.73311 6.50967 3.794 7.04553 2.96599C7.58139 2.13797 8.29866 1.44275 9.143 0.933C9.54 0.693 9.463 0 9 0C3.477 0 0 4.477 0 10C0 15.523 3.477 19 9 19Z" fill="black"/>
</svg>
