<svg width="23" height="23" viewBox="0 0 23 23" fill="none" xmlns="http://www.w3.org/2000/svg">
<path d="M11.6337 0L8.42441 3.91C9.49418 3.68 10.5639 3.45 11.6337 3.45C12.7035 3.45 13.7732 3.68 14.843 3.91M5.61627 5.405L0 5.75L2.40697 10.12C2.5407 9.2 2.94186 8.28 3.47674 7.475C4.14535 6.67 4.81395 5.98 5.61627 5.405ZM11.6337 5.75C7.88953 5.75 4.94767 8.28 4.94767 11.5C4.94767 14.72 7.88953 17.25 11.6337 17.25C15.3779 17.25 18.3198 14.72 18.3198 11.5C18.3198 8.28 15.3779 5.75 11.6337 5.75ZM2.5407 12.88L0.133721 17.25L5.61627 17.71C4.94767 17.135 4.14535 16.33 3.61046 15.525C2.94186 14.72 2.67442 13.8 2.5407 12.88ZM8.42441 19.09L11.6337 23L14.843 19.09C13.7732 19.32 12.7035 19.55 11.6337 19.55C10.4302 19.55 9.36046 19.32 8.42441 19.09Z" fill="#D1D1D1"/>
<path d="M17.3837 18.0549L23 17.7099L20.593 13.3399C20.4593 14.2599 20.0581 15.1799 19.5233 15.9849C18.8547 16.7899 18.186 17.4799 17.3837 18.0549ZM20.4593 10.5799L22.8663 6.20993L17.3837 5.74993C18.0523 6.32493 18.8547 7.12993 19.3895 7.93493C20.0581 8.73993 20.3256 9.65993 20.4593 10.5799Z" fill="#D1D1D1"/>
</svg>
