<svg width="16" height="16" viewBox="0 0 16 16" fill="none" xmlns="http://www.w3.org/2000/svg">
<path d="M13.65 2.35C12.9099 1.60485 12.0296 1.01356 11.0599 0.610231C10.0902 0.206901 9.05025 -0.000494355 8.00001 8.84845e-07C3.58001 8.84845e-07 0.0100098 3.58 0.0100098 8C0.0100098 12.42 3.58001 16 8.00001 16C11.73 16 14.84 13.45 15.73 10H13.65C13.2381 11.1695 12.4734 12.1824 11.4614 12.8988C10.4494 13.6153 9.23995 14 8.00001 14C4.69001 14 2.00001 11.31 2.00001 8C2.00001 4.69 4.69001 2 8.00001 2C9.66001 2 11.14 2.69 12.22 3.78L9.00001 7H16V8.84845e-07L13.65 2.35Z" fill="black"/>
</svg>
