<svg width="21" height="17" viewBox="0 0 21 17" fill="none" xmlns="http://www.w3.org/2000/svg">
<path d="M4.889 12.4453H1C0.734784 12.4453 0.48043 12.34 0.292893 12.1524C0.105357 11.9649 0 11.7106 0 11.4453V5.44533C0 5.18012 0.105357 4.92576 0.292893 4.73823C0.48043 4.55069 0.734784 4.44533 1 4.44533H4.889L10.183 0.113334C10.2563 0.053281 10.3451 0.0152703 10.4391 0.00372706C10.5331 -0.00781622 10.6284 0.00758276 10.714 0.0481313C10.7996 0.0886799 10.872 0.15271 10.9226 0.232766C10.9732 0.312823 11.0001 0.405613 11 0.500334V16.3903C11.0001 16.4851 10.9732 16.5778 10.9226 16.6579C10.872 16.738 10.7996 16.802 10.714 16.8425C10.6284 16.8831 10.5331 16.8985 10.4391 16.8869C10.3451 16.8754 10.2563 16.8374 10.183 16.7773L4.889 12.4453Z" fill="black"/>
<path d="M15.35 16.7262C15.0167 16.8595 14.7083 16.8179 14.425 16.6012C14.1417 16.3845 14 16.0845 14 15.7012C14 15.5179 14.0543 15.3555 14.163 15.2142C14.2717 15.0729 14.409 14.9685 14.575 14.9012C15.9083 14.3679 16.9793 13.5179 17.788 12.3512C18.5967 11.1845 19.0007 9.86786 19 8.40119C19 6.93452 18.5957 5.61786 17.787 4.45119C16.9783 3.28452 15.9077 2.43452 14.575 1.90119C14.3917 1.83452 14.25 1.72619 14.15 1.57619C14.05 1.42619 14 1.25952 14 1.07619C14 0.709524 14.1417 0.417857 14.425 0.20119C14.7083 -0.0154762 15.0167 -0.0571429 15.35 0.0761905C17.05 0.759524 18.4167 1.85119 19.45 3.35119C20.4833 4.85119 21 6.53452 21 8.40119C21 10.2679 20.4833 11.9512 19.45 13.4512C18.4167 14.9512 17.05 16.0429 15.35 16.7262ZM14 12.4262V4.37619C14.75 4.72619 15.3543 5.26786 15.813 6.00119C16.2717 6.73452 16.5007 7.54286 16.5 8.42619C16.5 9.30952 16.2707 10.1095 15.812 10.8262C15.3533 11.5429 14.7493 12.0762 14 12.4262Z" fill="black"/>
</svg>
